<?xml version="1.0" standalone="no"?>
<!DOCTYPE svg PUBLIC "-//W3C//DTD SVG 20010904//EN"
 "http://www.w3.org/TR/2001/REC-SVG-20010904/DTD/svg10.dtd">
<svg version="1.0" xmlns="http://www.w3.org/2000/svg"
 width="137.000000pt" height="206.000000pt" viewBox="0 0 137.000000 206.000000"
 preserveAspectRatio="xMidYMid meet">

<g transform="translate(0.000000,206.000000) scale(0.100000,-0.100000)"
fill="#FFFFFF" stroke="none">
<path d="M0 1030 l0 -1030 685 0 685 0 0 1030 0 1030 -685 0 -685 0 0 -1030z
m580 785 c0 -3 -40 -45 -90 -93 l-90 -89 0 -198 0 -197 34 -34 c26 -26 42 -34
70 -34 40 0 86 18 86 34 0 6 -19 30 -42 54 l-43 43 -3 135 -4 135 99 101 c132
134 187 161 285 138 65 -16 141 -86 157 -145 17 -62 14 -429 -3 -463 -8 -15
-40 -52 -72 -82 -38 -36 -52 -55 -43 -58 31 -10 107 -98 118 -137 17 -61 15
-429 -3 -463 -8 -15 -41 -53 -74 -84 l-61 -58 -71 0 c-84 0 -87 -9 31 109 l79
79 0 197 0 197 -34 34 c-26 26 -42 34 -70 34 -39 0 -86 -18 -86 -33 0 -5 20
-32 45 -58 l45 -48 0 -128 c-1 -82 -5 -135 -13 -148 -7 -11 -57 -64 -113 -116
-87 -83 -108 -98 -152 -109 -79 -19 -143 0 -202 59 -64 64 -70 93 -70 328 l0
200 28 39 c16 21 48 56 72 78 39 35 41 39 24 49 -39 20 -100 94 -112 134 -8
26 -12 112 -12 240 l0 200 28 39 c16 22 51 59 77 82 46 41 50 42 116 42 38 0
69 -2 69 -5z"/>
<path d="M773 1698 c-13 -6 -23 -16 -23 -21 0 -5 20 -32 45 -58 l45 -48 0
-133 -1 -133 -42 -46 c-23 -25 -107 -104 -187 -174 -80 -70 -160 -143 -177
-163 l-33 -35 0 -195 0 -194 34 -34 c26 -26 42 -34 70 -34 40 0 86 18 86 34 0
6 -19 30 -42 54 l-43 43 -3 134 -4 135 59 61 c32 34 108 105 168 159 61 53
134 119 163 147 l52 49 0 198 0 198 -34 34 c-27 27 -42 34 -72 33 -22 0 -49
-5 -61 -11z"/>
<path d="M638 1565 c-26 -31 -28 -39 -28 -129 0 -92 1 -97 30 -128 l30 -33 30
33 c29 31 30 35 30 131 0 92 -2 102 -26 130 -14 17 -29 31 -32 30 -4 0 -19
-15 -34 -34z"/>
<path d="M643 828 c-33 -34 -33 -35 -33 -131 0 -94 1 -98 30 -129 l30 -33 30
35 c28 34 29 39 30 132 0 93 -1 99 -27 128 l-28 31 -32 -33z"/>
</g>
</svg>
